<svg width="18" height="19" viewBox="0 0 18 19" fill="none" xmlns="http://www.w3.org/2000/svg">
<path d="M9.16129 7.09149H10.869V4.4795H13.4306V2.73818H10.869V0.12619H9.16129V2.73818H6.59971V4.4795H9.16129V7.09149ZM5.74585 14.9275C4.8066 14.9275 4.04666 15.711 4.04666 16.6688C4.04666 17.6265 4.8066 18.4101 5.74585 18.4101C6.68509 18.4101 7.45357 17.6265 7.45357 16.6688C7.45357 15.711 6.68509 14.9275 5.74585 14.9275ZM14.2845 14.9275C13.3452 14.9275 12.5853 15.711 12.5853 16.6688C12.5853 17.6265 13.3452 18.4101 14.2845 18.4101C15.2237 18.4101 15.9922 17.6265 15.9922 16.6688C15.9922 15.711 15.2237 14.9275 14.2845 14.9275ZM5.891 12.0978L5.91662 11.9933L6.68509 10.5741H13.0464C13.6868 10.5741 14.2503 10.2172 14.5406 9.67736L17.8365 3.57401L16.3508 2.73818H16.3423L15.403 4.4795L13.0464 8.83281H7.05225L6.94125 8.59773L5.0286 4.4795L4.21744 2.73818L3.41481 0.996853H0.622681V2.73818H2.3304L5.4043 9.34651L4.25159 11.4796C4.11497 11.7234 4.03812 12.0107 4.03812 12.3155C4.03812 13.2732 4.8066 14.0568 5.74585 14.0568H15.9922V12.3155H6.10447C5.99347 12.3155 5.891 12.2197 5.891 12.0978Z" fill="black"/>
</svg>
